<svg width="25" height="23" viewBox="0 0 25 23" fill="none" xmlns="http://www.w3.org/2000/svg">
<path id="Vector" d="M6.6085 6.17138H18.1776L13.9063 1.90003C13.5037 1.49747 13.5024 0.846101 13.9096 0.43886C14.3141 0.0344387 14.9708 0.0354573 15.3708 0.43549L21.1067 6.17138H22.7438C23.8905 6.17138 24.5944 7.07399 24.3184 8.17828L21.1795 20.7338C20.9024 21.8422 19.7514 22.7408 18.6044 22.7408H6.18175C5.03666 22.7408 3.88272 21.8381 3.60665 20.7338L0.467758 8.17828C0.190663 7.0699 0.89498 6.17138 2.04233 6.17138H3.67942L9.41531 0.43549C9.81787 0.0329298 10.4692 0.0316192 10.8765 0.43886C11.2809 0.843281 11.2799 1.5 10.8798 1.90003L6.6085 6.17138ZM5.61598 20.2315C5.66183 20.4149 5.98822 20.6696 6.18175 20.6696H18.6044C18.8009 20.6696 19.1235 20.418 19.1701 20.2315L22.1674 8.24255H2.61874L5.61598 20.2315ZM6.69734 12.3893C6.69734 11.8149 7.157 11.3493 7.73292 11.3493C8.30486 11.3493 8.76851 11.8163 8.76851 12.3893V16.5228C8.76851 17.0972 8.30885 17.5628 7.73292 17.5628C7.16099 17.5628 6.69734 17.0958 6.69734 16.5228V12.3893ZM11.3575 12.3893C11.3575 11.8149 11.8171 11.3493 12.3931 11.3493C12.965 11.3493 13.4286 11.8163 13.4286 12.3893V16.5228C13.4286 17.0972 12.969 17.5628 12.3931 17.5628C11.8211 17.5628 11.3575 17.0958 11.3575 16.5228V12.3893ZM16.0176 12.3893C16.0176 11.8149 16.4773 11.3493 17.0532 11.3493C17.6251 11.3493 18.0888 11.8163 18.0888 12.3893V16.5228C18.0888 17.0972 17.6291 17.5628 17.0532 17.5628C16.4813 17.5628 16.0176 17.0958 16.0176 16.5228V12.3893Z" fill="white"/>
</svg>
